<?xml version="1.0" encoding="UTF-8" standalone="no"?>
<!DOCTYPE svg PUBLIC "-//W3C//DTD SVG 1.1//EN"
 "http://www.w3.org/Graphics/SVG/1.1/DTD/svg11.dtd">
<!-- Generated by graphviz version 14.1.3 (0)
 -->
<!-- Title: SQLiteERD Pages: 1 -->
<svg width="828pt" height="598pt"
 viewBox="0.00 0.00 828.00 598.00" xmlns="http://www.w3.org/2000/svg" xmlns:xlink="http://www.w3.org/1999/xlink">
<g id="graph0" class="graph" transform="scale(1 1) rotate(0) translate(4 594.31)">
<title>SQLiteERD</title>
<polygon fill="white" stroke="none" points="-4,4 -4,-594.31 824.1,-594.31 824.1,4 -4,4"/>
<!-- bookings -->
<g id="node1" class="node">
<title>bookings</title>
<polygon fill="lightgray" stroke="none" points="1,-464.31 1,-484.31 145.71,-484.31 145.71,-464.31 1,-464.31"/>
<text xml:space="preserve" text-anchor="start" x="51.13" y="-472.31" font-family="Arial" font-weight="bold" font-size="10.00">bookings</text>
<text xml:space="preserve" text-anchor="start" x="5" y="-450.31" font-family="Arial" font-size="10.00">id : INTEGER (PK)</text>
<text xml:space="preserve" text-anchor="start" x="5" y="-430.31" font-family="Arial" font-size="10.00">name : VARCHAR(255)</text>
<text xml:space="preserve" text-anchor="start" x="5" y="-410.31" font-family="Arial" font-size="10.00">patientId : INTEGER (FK)</text>
<text xml:space="preserve" text-anchor="start" x="5" y="-390.31" font-family="Arial" font-size="10.00">staffId : INTEGER (FK)</text>
<text xml:space="preserve" text-anchor="start" x="5" y="-370.31" font-family="Arial" font-size="10.00">consultationId : INTEGER (FK)</text>
<text xml:space="preserve" text-anchor="start" x="5" y="-350.31" font-family="Arial" font-size="10.00">slotId : INTEGER (FK)</text>
<text xml:space="preserve" text-anchor="start" x="5" y="-330.31" font-family="Arial" font-size="10.00">duration : INTEGER</text>
<text xml:space="preserve" text-anchor="start" x="5" y="-310.31" font-family="Arial" font-size="10.00">startTime : DATETIME</text>
<text xml:space="preserve" text-anchor="start" x="5" y="-290.31" font-family="Arial" font-size="10.00">endTime : DATETIME</text>
<text xml:space="preserve" text-anchor="start" x="5" y="-270.31" font-family="Arial" font-size="10.00">status : TEXT</text>
<text xml:space="preserve" text-anchor="start" x="5" y="-250.31" font-family="Arial" font-size="10.00">price : DECIMAL(10,2)</text>
<text xml:space="preserve" text-anchor="start" x="5" y="-230.31" font-family="Arial" font-size="10.00">isPublic : TINYINT(1)</text>
<text xml:space="preserve" text-anchor="start" x="5" y="-210.31" font-family="Arial" font-size="10.00">createdAt : DATETIME</text>
<text xml:space="preserve" text-anchor="start" x="5" y="-190.31" font-family="Arial" font-size="10.00">updatedAt : DATETIME</text>
<polygon fill="none" stroke="black" points="0,-183.31 0,-485.31 146.71,-485.31 146.71,-183.31 0,-183.31"/>
</g>
<!-- users -->
<g id="node2" class="node">
<title>users</title>
<polygon fill="lightgray" stroke="none" points="254.61,-569.31 254.61,-589.31 385.99,-589.31 385.99,-569.31 254.61,-569.31"/>
<text xml:space="preserve" text-anchor="start" x="306.96" y="-577.31" font-family="Arial" font-weight="bold" font-size="10.00">users</text>
<text xml:space="preserve" text-anchor="start" x="258.61" y="-555.31" font-family="Arial" font-size="10.00">id : INTEGER (PK)</text>
<text xml:space="preserve" text-anchor="start" x="258.61" y="-535.31" font-family="Arial" font-size="10.00">name : VARCHAR(255)</text>
<text xml:space="preserve" text-anchor="start" x="258.61" y="-515.31" font-family="Arial" font-size="10.00">email : VARCHAR(255)</text>
<text xml:space="preserve" text-anchor="start" x="258.61" y="-495.31" font-family="Arial" font-size="10.00">password : VARCHAR(255)</text>
<text xml:space="preserve" text-anchor="start" x="258.61" y="-475.31" font-family="Arial" font-size="10.00">roleId : INTEGER</text>
<text xml:space="preserve" text-anchor="start" x="258.61" y="-455.31" font-family="Arial" font-size="10.00">createdAt : DATETIME</text>
<text xml:space="preserve" text-anchor="start" x="258.61" y="-435.31" font-family="Arial" font-size="10.00">updatedAt : DATETIME</text>
<polygon fill="none" stroke="black" points="253.61,-428.31 253.61,-590.31 386.99,-590.31 386.99,-428.31 253.61,-428.31"/>
</g>
<!-- bookings&#45;&gt;users -->
<g id="edge4" class="edge">
<title>bookings&#45;&gt;users</title>
<path fill="none" stroke="black" d="M146.49,-399.18C152.56,-404.08 158.68,-408.85 164.71,-413.31 189.7,-431.81 218.33,-450.27 244.1,-466"/>
<polygon fill="black" stroke="black" points="242.16,-468.91 252.53,-471.1 245.79,-462.93 242.16,-468.91"/>
<text xml:space="preserve" text-anchor="middle" x="192.1" y="-452.65" font-family="Arial" font-size="9.00">patientId &#45;&gt; id</text>
</g>
<!-- consultations -->
<g id="node3" class="node">
<title>consultations</title>
<polygon fill="lightgray" stroke="none" points="516.45,-393.31 516.45,-413.31 643.93,-413.31 643.93,-393.31 516.45,-393.31"/>
<text xml:space="preserve" text-anchor="start" x="547.69" y="-401.31" font-family="Arial" font-weight="bold" font-size="10.00">consultations</text>
<text xml:space="preserve" text-anchor="start" x="520.45" y="-379.31" font-family="Arial" font-size="10.00">id : INTEGER (PK)</text>
<text xml:space="preserve" text-anchor="start" x="520.45" y="-359.31" font-family="Arial" font-size="10.00">name : VARCHAR(255)</text>
<text xml:space="preserve" text-anchor="start" x="520.45" y="-339.31" font-family="Arial" font-size="10.00">description : TEXT</text>
<text xml:space="preserve" text-anchor="start" x="520.45" y="-319.31" font-family="Arial" font-size="10.00">specialty : VARCHAR(255)</text>
<text xml:space="preserve" text-anchor="start" x="520.45" y="-299.31" font-family="Arial" font-size="10.00">duration : INTEGER</text>
<text xml:space="preserve" text-anchor="start" x="520.45" y="-279.31" font-family="Arial" font-size="10.00">price : DECIMAL(10,2)</text>
<text xml:space="preserve" text-anchor="start" x="520.45" y="-259.31" font-family="Arial" font-size="10.00">createdAt : DATETIME</text>
<text xml:space="preserve" text-anchor="start" x="520.45" y="-239.31" font-family="Arial" font-size="10.00">updatedAt : DATETIME</text>
<polygon fill="none" stroke="black" points="515.45,-232.31 515.45,-414.31 644.93,-414.31 644.93,-232.31 515.45,-232.31"/>
</g>
<!-- bookings&#45;&gt;consultations -->
<g id="edge2" class="edge">
<title>bookings&#45;&gt;consultations</title>
<path fill="none" stroke="black" d="M146.42,-354.84C174.58,-361.87 207.3,-368.84 237.5,-372.31 310.62,-380.71 330.18,-382.27 403.1,-372.31 437.13,-367.66 473.86,-358.19 504.93,-348.8"/>
<polygon fill="black" stroke="black" points="505.7,-352.22 514.22,-345.93 503.64,-345.53 505.7,-352.22"/>
<text xml:space="preserve" text-anchor="middle" x="320.3" y="-381.91" font-family="Arial" font-size="9.00">consultationId &#45;&gt; id</text>
</g>
<!-- slots -->
<g id="node4" class="node">
<title>slots</title>
<polygon fill="lightgray" stroke="none" points="247.94,-222.31 247.94,-242.31 392.65,-242.31 392.65,-222.31 247.94,-222.31"/>
<text xml:space="preserve" text-anchor="start" x="308.63" y="-230.31" font-family="Arial" font-weight="bold" font-size="10.00">slots</text>
<text xml:space="preserve" text-anchor="start" x="251.94" y="-208.31" font-family="Arial" font-size="10.00">id : INTEGER (PK)</text>
<text xml:space="preserve" text-anchor="start" x="251.94" y="-188.31" font-family="Arial" font-size="10.00">staffId : INTEGER (FK)</text>
<text xml:space="preserve" text-anchor="start" x="251.94" y="-168.31" font-family="Arial" font-size="10.00">consultationId : INTEGER (FK)</text>
<text xml:space="preserve" text-anchor="start" x="251.94" y="-148.31" font-family="Arial" font-size="10.00">date : DATE</text>
<text xml:space="preserve" text-anchor="start" x="251.94" y="-128.31" font-family="Arial" font-size="10.00">startTime : TIME</text>
<text xml:space="preserve" text-anchor="start" x="251.94" y="-108.31" font-family="Arial" font-size="10.00">endTime : TIME</text>
<text xml:space="preserve" text-anchor="start" x="251.94" y="-88.31" font-family="Arial" font-size="10.00">isAvailable : TINYINT(1)</text>
<text xml:space="preserve" text-anchor="start" x="251.94" y="-68.31" font-family="Arial" font-size="10.00">createdAt : DATETIME</text>
<text xml:space="preserve" text-anchor="start" x="251.94" y="-48.31" font-family="Arial" font-size="10.00">updatedAt : DATETIME</text>
<polygon fill="none" stroke="black" points="246.94,-41.31 246.94,-243.31 393.65,-243.31 393.65,-41.31 246.94,-41.31"/>
</g>
<!-- bookings&#45;&gt;slots -->
<g id="edge1" class="edge">
<title>bookings&#45;&gt;slots</title>
<path fill="none" stroke="black" d="M146.52,-277.74C175.42,-255.09 208.84,-228.89 238.55,-205.61"/>
<polygon fill="black" stroke="black" points="240.32,-208.66 246.03,-199.74 236,-203.15 240.32,-208.66"/>
<text xml:space="preserve" text-anchor="middle" x="192.1" y="-263.85" font-family="Arial" font-size="9.00">slotId &#45;&gt; id</text>
</g>
<!-- staff -->
<g id="node7" class="node">
<title>staff</title>
<polygon fill="lightgray" stroke="none" points="515.9,-193.31 515.9,-213.31 644.48,-213.31 644.48,-193.31 515.9,-193.31"/>
<text xml:space="preserve" text-anchor="start" x="569.63" y="-201.31" font-family="Arial" font-weight="bold" font-size="10.00">staff</text>
<text xml:space="preserve" text-anchor="start" x="519.9" y="-179.31" font-family="Arial" font-size="10.00">id : INTEGER (PK)</text>
<text xml:space="preserve" text-anchor="start" x="519.9" y="-159.31" font-family="Arial" font-size="10.00">userId : INTEGER (FK)</text>
<text xml:space="preserve" text-anchor="start" x="519.9" y="-139.31" font-family="Arial" font-size="10.00">specialty : VARCHAR(255)</text>
<text xml:space="preserve" text-anchor="start" x="519.9" y="-119.31" font-family="Arial" font-size="10.00">isAvailable : TINYINT(1)</text>
<text xml:space="preserve" text-anchor="start" x="519.9" y="-99.31" font-family="Arial" font-size="10.00">bio : TEXT</text>
<text xml:space="preserve" text-anchor="start" x="519.9" y="-79.31" font-family="Arial" font-size="10.00">imageUrl : VARCHAR(255)</text>
<text xml:space="preserve" text-anchor="start" x="519.9" y="-59.31" font-family="Arial" font-size="10.00">createdAt : DATETIME</text>
<text xml:space="preserve" text-anchor="start" x="519.9" y="-39.31" font-family="Arial" font-size="10.00">updatedAt : DATETIME</text>
<polygon fill="none" stroke="black" points="514.9,-32.31 514.9,-214.31 645.48,-214.31 645.48,-32.31 514.9,-32.31"/>
</g>
<!-- bookings&#45;&gt;staff -->
<g id="edge3" class="edge">
<title>bookings&#45;&gt;staff</title>
<path fill="none" stroke="black" d="M115.13,-183.32C139.93,-121.97 178.58,-57.23 237.5,-21.51 321.71,29.55 433.23,-22.18 505.59,-68.66"/>
<polygon fill="black" stroke="black" points="503.54,-71.5 513.83,-74.05 507.37,-65.64 503.54,-71.5"/>
<text xml:space="preserve" text-anchor="middle" x="320.3" y="-24.21" font-family="Arial" font-size="9.00">staffId &#45;&gt; id</text>
</g>
<!-- slots&#45;&gt;consultations -->
<g id="edge5" class="edge">
<title>slots&#45;&gt;consultations</title>
<path fill="none" stroke="black" d="M393.54,-172.22C426.68,-187.7 465.49,-208.41 496.9,-232.51 500.41,-235.2 503.89,-238.06 507.32,-241.03"/>
<polygon fill="black" stroke="black" points="504.86,-243.52 514.63,-247.61 509.54,-238.32 504.86,-243.52"/>
<text xml:space="preserve" text-anchor="middle" x="459" y="-235.21" font-family="Arial" font-size="9.00">consultationId &#45;&gt; id</text>
</g>
<!-- slots&#45;&gt;staff -->
<g id="edge6" class="edge">
<title>slots&#45;&gt;staff</title>
<path fill="none" stroke="black" d="M393.48,-136.99C427.9,-134.46 469.06,-131.42 503.88,-128.86"/>
<polygon fill="black" stroke="black" points="503.72,-132.38 513.44,-128.16 503.21,-125.4 503.72,-132.38"/>
<text xml:space="preserve" text-anchor="middle" x="459" y="-137.21" font-family="Arial" font-size="9.00">staffId &#45;&gt; id</text>
</g>
<!-- staff_consult -->
<g id="node5" class="node">
<title>staff_consult</title>
<polygon fill="lightgray" stroke="none" points="238.5,-342.31 238.5,-362.31 402.1,-362.31 402.1,-342.31 238.5,-342.31"/>
<text xml:space="preserve" text-anchor="start" x="289.18" y="-350.31" font-family="Arial" font-weight="bold" font-size="10.00">staff_consult</text>
<text xml:space="preserve" text-anchor="start" x="242.5" y="-328.31" font-family="Arial" font-size="10.00">staffId : INTEGER (PK, FK)</text>
<text xml:space="preserve" text-anchor="start" x="242.5" y="-308.31" font-family="Arial" font-size="10.00">consultationId : INTEGER (PK, FK)</text>
<text xml:space="preserve" text-anchor="start" x="242.5" y="-288.31" font-family="Arial" font-size="10.00">createdAt : DATETIME</text>
<text xml:space="preserve" text-anchor="start" x="242.5" y="-268.31" font-family="Arial" font-size="10.00">updatedAt : DATETIME</text>
<polygon fill="none" stroke="black" points="237.5,-261.31 237.5,-363.31 403.1,-363.31 403.1,-261.31 237.5,-261.31"/>
</g>
<!-- staff_consult&#45;&gt;consultations -->
<g id="edge7" class="edge">
<title>staff_consult&#45;&gt;consultations</title>
<path fill="none" stroke="black" d="M402.9,-315.79C435.36,-317.18 472.47,-318.76 504.24,-320.11"/>
<polygon fill="black" stroke="black" points="504.04,-323.61 514.18,-320.54 504.34,-316.62 504.04,-323.61"/>
<text xml:space="preserve" text-anchor="middle" x="459" y="-322.45" font-family="Arial" font-size="9.00">consultationId &#45;&gt; id</text>
</g>
<!-- staff_consult&#45;&gt;staff -->
<g id="edge8" class="edge">
<title>staff_consult&#45;&gt;staff</title>
<path fill="none" stroke="black" d="M403.08,-291.42C434.62,-280.62 469.6,-265.03 496.9,-243.31 499.79,-241.01 505.67,-233.47 513.02,-223.22"/>
<polygon fill="black" stroke="black" points="515.73,-225.45 518.64,-215.26 510.01,-221.42 515.73,-225.45"/>
<text xml:space="preserve" text-anchor="middle" x="459" y="-285.86" font-family="Arial" font-size="9.00">staffId &#45;&gt; id</text>
</g>
<!-- user_tbl -->
<g id="node6" class="node">
<title>user_tbl</title>
<polygon fill="lightgray" stroke="none" points="727.76,-123.31 727.76,-143.31 819.1,-143.31 819.1,-123.31 727.76,-123.31"/>
<text xml:space="preserve" text-anchor="start" x="762.87" y="-131.31" font-family="Arial" font-weight="bold" font-size="10.00">user</text>
<text xml:space="preserve" text-anchor="start" x="731.76" y="-109.31" font-family="Arial" font-size="10.00">id : INTEGER (PK)</text>
<polygon fill="none" stroke="black" points="726.76,-102.31 726.76,-144.31 820.1,-144.31 820.1,-102.31 726.76,-102.31"/>
</g>
<!-- staff&#45;&gt;user_tbl -->
<g id="edge9" class="edge">
<title>staff&#45;&gt;user_tbl</title>
<path fill="none" stroke="black" d="M645.4,-123.31C668.03,-123.31 693.3,-123.31 715.3,-123.31"/>
<polygon fill="black" stroke="black" points="715.3,-126.81 725.3,-123.31 715.3,-119.81 715.3,-126.81"/>
<text xml:space="preserve" text-anchor="middle" x="686.12" y="-126.01" font-family="Arial" font-size="9.00">userId &#45;&gt; id</text>
</g>
</g>
</svg>
